<?xml version="1.0" standalone="no"?>
<!DOCTYPE svg PUBLIC "-//W3C//DTD SVG 20010904//EN"
 "http://www.w3.org/TR/2001/REC-SVG-20010904/DTD/svg10.dtd">
<svg version="1.0" xmlns="http://www.w3.org/2000/svg"
 width="860.000000pt" height="779.000000pt" viewBox="0 0 860.000000 779.000000"
 preserveAspectRatio="xMidYMid meet">

<g transform="translate(0.000000,779.000000) scale(0.100000,-0.100000)"
fill="#000000" stroke="none">
<path d="M2377 7108 c-47 -80 -452 -781 -1503 -2598 -347 -601 -317 -545 -303
-572 7 -13 194 -338 417 -723 222 -385 598 -1035 835 -1445 236 -410 470 -812
518 -895 l87 -150 1841 -3 c1013 -1 1841 0 1841 3 0 3 -79 124 -177 270 l-176
265 -1351 2 -1350 3 -62 105 c-33 58 -198 341 -364 630 -167 289 -426 737
-575 995 -150 259 -300 519 -334 579 -35 59 -61 116 -58 125 2 9 323 567 712
1241 390 674 738 1276 773 1338 l64 112 1405 -2 1405 -3 182 -315 c817 -1411
1216 -2103 1216 -2110 0 -4 -138 -245 -306 -536 -453 -784 -544 -941 -544
-948 0 -8 306 -464 325 -484 12 -14 -1 -34 405 668 100 173 230 398 289 500
59 102 188 323 285 492 l178 308 -120 207 c-66 115 -202 350 -302 523 -100
173 -224 387 -275 475 -51 88 -185 320 -297 515 -227 393 -779 1347 -840 1453
l-39 67 -1874 0 -1874 0 -54 -92z"/>
<path d="M2920 3760 c0 -1420 2 -1661 14 -1666 8 -3 99 1 203 10 162 13 201
20 287 49 82 28 109 42 167 92 123 104 199 275 219 490 5 55 9 522 10 1038 l0
937 900 0 900 0 0 -305 0 -305 -690 0 -690 0 972 -1457 c534 -802 1011 -1510
1059 -1573 106 -140 203 -227 318 -284 124 -63 170 -68 594 -64 l358 3 -597
885 c-708 1050 -883 1309 -1062 1573 -73 109 -132 200 -130 201 1 1 75 15 163
30 l160 27 119 67 c178 101 247 186 298 373 22 82 23 95 23 529 l-1 445 -26
90 c-32 108 -69 177 -132 251 -40 46 -68 65 -175 118 l-127 64 -159 21 c-156
21 -194 21 -1567 21 l-1408 0 0 -1660z"/>
</g>
</svg>
